<?xml version="1.0" encoding="UTF-8"?>
<svg width="200" height="300" viewBox="0 0 200 300" xmlns="http://www.w3.org/2000/svg">
  <!-- 작은 별 (상단) -->
  <path d="M180 30 L185 40 L196 40 L187 47 L190 58 L180 51 L170 58 L173 47 L164 40 L175 40 Z" 
        fill="#000000"/>
  
  <!-- 큰 별 (중앙) -->
  <path d="M100 70 L115 105 L155 105 L125 130 L140 165 L100 140 L60 165 L75 130 L45 105 L85 105 Z" 
        fill="#000000"/>
  
  <!-- 기업의별 텍스트 -->
  <g fill="#000000" font-family="Arial, sans-serif" font-weight="bold">
    <!-- 기 -->
    <g transform="translate(20, 200)">
      <rect x="0" y="0" width="25" height="3" />
      <rect x="0" y="8" width="25" height="3" />
      <rect x="0" y="16" width="25" height="3" />
      <rect x="0" y="24" width="25" height="3" />
      <rect x="11" y="0" width="3" height="30" />
      <rect x="28" y="8" width="3" height="15" />
      <rect x="28" y="26" width="8" height="3" />
    </g>
    
    <!-- 업 -->
    <g transform="translate(45, 200)">
      <rect x="0" y="0" width="3" height="30" />
      <rect x="8" y="0" width="3" height="30" />
      <rect x="16" y="0" width="3" height="30" />
      <rect x="24" y="0" width="3" height="30" />
      <rect x="0" y="8" width="27" height="3" />
      <rect x="0" y="18" width="27" height="3" />
    </g>
    
    <!-- 의 -->
    <g transform="translate(78, 200)">
      <circle cx="8" cy="8" r="6" fill="none" stroke="#000000" stroke-width="3"/>
      <rect x="5" y="18" width="6" height="3" />
      <rect x="18" y="0" width="3" height="30" />
      <rect x="24" y="8" width="8" height="3" />
      <rect x="24" y="18" width="8" height="3" />
    </g>
    
    <!-- 별 -->
    <g transform="translate(110, 200)">
      <rect x="0" y="0" width="25" height="3" />
      <rect x="0" y="8" width="25" height="3" />
      <rect x="11" y="0" width="3" height="18" />
      <rect x="0" y="16" width="8" height="3" />
      <rect x="17" y="16" width="8" height="3" />
      <rect x="3" y="22" width="19" height="3" />
      <rect x="8" y="26" width="9" height="3" />
    </g>
    
    <!-- ® 등록상표 -->
    <g transform="translate(145, 200)">
      <circle cx="8" cy="15" r="12" fill="none" stroke="#000000" stroke-width="2"/>
      <text x="8" y="20" text-anchor="middle" font-size="14" font-weight="bold">®</text>
    </g>
  </g>
</svg> 