<svg width="32" height="32" viewBox="0 0 32 32" fill="none" xmlns="http://www.w3.org/2000/svg">
  <!-- 배경 원형 -->
  <circle cx="16" cy="16" r="15" fill="url(#backgroundGradient)"/>
  
  <!-- 메인 별 -->
  <polygon points="16,6 18,12 24,12 20,16 21,22 16,19 11,22 12,16 8,12 14,12" fill="url(#mainStarGradient)"/>
  
  <!-- 별 하이라이트 -->
  <polygon points="16,6 17,9 20,9 18,11 19,14 16,12 13,14 14,11 12,9 15,9" fill="url(#highlightGradient)" opacity="0.9"/>
  
  <!-- 작은 장식 별들 -->
  <polygon points="6,8 7,10 9,10 8,11 9,13 6,12 3,13 4,11 2,10 4,10" fill="#FED24A" opacity="0.6"/>
  <polygon points="26,24 27,26 29,26 28,27 29,29 26,28 23,29 24,27 22,26 24,26" fill="#FED24A" opacity="0.6"/>
  
  <!-- 그라데이션 정의 -->
  <defs>
    <linearGradient id="backgroundGradient" x1="0%" y1="0%" x2="100%" y2="100%">
      <stop offset="0%" style="stop-color:#667eea;stop-opacity:1" />
      <stop offset="100%" style="stop-color:#764ba2;stop-opacity:1" />
    </linearGradient>
    
    <linearGradient id="mainStarGradient" x1="0%" y1="0%" x2="100%" y2="100%">
      <stop offset="0%" style="stop-color:#F6AD55;stop-opacity:1" />
      <stop offset="50%" style="stop-color:#ED8936;stop-opacity:1" />
      <stop offset="100%" style="stop-color:#DD6B20;stop-opacity:1" />
    </linearGradient>
    
    <linearGradient id="highlightGradient" x1="0%" y1="0%" x2="50%" y2="50%">
      <stop offset="0%" style="stop-color:#FED24A;stop-opacity:1" />
      <stop offset="100%" style="stop-color:#F6AD55;stop-opacity:0.3" />
    </linearGradient>
  </defs>
</svg> 