<?xml version="1.0" standalone="no"?>
<!DOCTYPE svg PUBLIC "-//W3C//DTD SVG 20010904//EN"
 "http://www.w3.org/TR/2001/REC-SVG-20010904/DTD/svg10.dtd">
<svg version="1.0" xmlns="http://www.w3.org/2000/svg"
 width="1506.000000pt" height="946.000000pt" viewBox="0 0 1506.000000 946.000000"
 preserveAspectRatio="xMidYMid meet">

<g transform="translate(0.000000,946.000000) scale(0.100000,-0.100000)"
fill="#000000" stroke="none">
<path d="M11738 9258 c-8 -35 -23 -88 -32 -118 -10 -30 -23 -75 -30 -100 l-13
-45 -176 -3 c-214 -3 -224 -8 -136 -73 33 -24 97 -73 142 -108 45 -36 84 -66
86 -67 2 -2 -6 -38 -18 -81 -12 -43 -27 -96 -32 -118 -6 -22 -15 -48 -20 -57
-5 -10 -13 -36 -18 -58 -7 -33 -6 -42 5 -47 9 -3 23 3 33 13 10 11 29 26 41
34 12 8 58 43 101 78 102 81 112 81 209 -1 8 -6 52 -40 98 -74 67 -51 84 -59
89 -46 3 9 1 30 -6 47 -7 17 -19 54 -26 81 -7 28 -18 64 -23 80 -6 17 -19 56
-28 87 -20 64 -22 60 46 106 14 9 67 49 117 89 51 40 97 73 103 73 8 0 15 26
8 32 -2 1 -84 4 -183 7 l-180 6 -22 65 c-12 36 -31 99 -43 140 -31 107 -37
120 -58 120 -14 0 -22 -14 -34 -62z"/>
<path d="M9450 7552 c-11 -4 16 -62 29 -62 4 0 18 -8 30 -17 40 -33 66 -53
196 -151 72 -54 165 -124 208 -157 42 -33 134 -103 203 -155 69 -52 162 -123
207 -157 45 -35 91 -70 102 -78 11 -8 29 -22 40 -30 11 -9 67 -52 125 -95 58
-44 114 -86 125 -95 11 -8 50 -38 88 -67 74 -56 79 -70 51 -143 -9 -22 -20
-58 -25 -80 -6 -21 -14 -44 -19 -50 -5 -6 -13 -29 -19 -50 -13 -54 -40 -136
-52 -157 -5 -10 -13 -34 -18 -55 -11 -42 -37 -121 -88 -263 -20 -56 -65 -189
-90 -270 -8 -25 -21 -60 -29 -78 -8 -18 -14 -40 -14 -48 0 -9 -6 -30 -14 -47
-14 -33 -37 -100 -61 -177 -7 -25 -19 -61 -26 -80 -7 -19 -20 -57 -29 -85 -10
-27 -23 -66 -30 -85 -6 -19 -17 -53 -22 -75 -6 -22 -15 -44 -19 -49 -5 -6 -9
-22 -9 -38 l0 -27 35 20 c19 12 35 24 35 27 0 4 17 18 38 32 20 14 71 51 112
82 41 32 84 65 95 73 11 8 66 49 122 92 56 43 158 121 227 173 69 52 163 124
208 159 46 35 144 109 218 165 74 55 140 105 146 111 7 5 24 19 40 30 15 11
64 48 108 83 88 69 104 72 156 29 15 -12 37 -29 50 -37 12 -8 69 -51 126 -95
96 -74 156 -120 454 -346 58 -44 119 -90 135 -103 17 -13 73 -56 125 -94 104
-78 102 -76 210 -160 41 -32 102 -78 135 -102 33 -24 67 -49 75 -57 46 -40 80
-63 95 -63 15 0 17 6 11 43 -4 23 -14 52 -22 64 -7 12 -14 29 -14 38 0 9 -8
37 -19 63 -26 67 -81 230 -92 276 -5 21 -16 51 -24 67 -8 15 -15 35 -15 44 0
10 -6 31 -14 48 -17 39 -44 119 -56 168 -5 19 -16 49 -25 65 -8 16 -15 37 -15
47 0 10 -5 28 -11 40 -7 11 -18 42 -25 67 -21 72 -45 144 -55 162 -5 10 -13
34 -18 55 -10 40 -36 117 -56 168 -22 54 -46 129 -54 165 -4 19 -12 44 -19 55
-35 64 -48 165 -22 165 5 0 22 11 37 25 15 14 33 28 38 32 6 5 55 42 110 83
55 41 106 80 112 85 7 6 23 18 35 27 13 10 60 46 106 80 45 35 138 105 205
156 67 51 169 128 227 172 58 44 114 87 125 95 11 9 67 51 125 95 58 44 115
88 128 97 13 10 29 23 35 28 7 6 35 27 63 48 43 31 68 60 65 75 -1 3 -4639 8
-4651 4z"/>
<path d="M12945 3485 c-55 -8 -120 -14 -145 -14 -26 -1 -51 -6 -58 -13 -9 -9
-12 -74 -12 -230 0 -120 -3 -218 -7 -218 -217 -3 -636 1 -643 5 -6 4 -10 83
-10 201 0 167 -2 195 -16 201 -8 3 -56 0 -106 -7 -50 -7 -140 -15 -202 -19
l-111 -6 -5 -227 c-3 -145 -9 -231 -16 -238 -15 -15 -752 -14 -771 1 -10 9
-13 55 -13 200 0 108 -4 190 -10 194 -15 10 -403 -15 -417 -27 -11 -9 -13
-154 -11 -777 l3 -766 835 0 835 0 3 119 c1 67 7 126 14 133 8 10 76 13 313
13 167 0 310 -3 319 -6 14 -5 16 -31 16 -178 0 -120 4 -176 12 -184 18 -18
432 -17 447 2 8 10 10 261 9 932 l-3 919 -75 2 c-41 0 -120 -5 -175 -12z
m-217 -974 c2 -85 -1 -117 -10 -123 -22 -13 -622 -10 -636 4 -13 13 -18 219
-5 231 4 4 151 6 327 5 l321 -3 3 -114z m-1118 9 c19 -19 20 -33 20 -197 0
-98 -4 -184 -8 -191 -7 -9 -93 -12 -398 -10 l-389 3 -3 192 c-2 164 0 193 14
207 13 14 60 16 380 16 351 0 365 -1 384 -20z"/>
<path d="M2953 3298 c-13 -20 -15 -3095 -3 -3118 10 -18 22 -20 153 -20 78 0
148 4 155 8 18 12 18 3122 0 3134 -22 14 -296 10 -305 -4z"/>
<path d="M4490 3300 c-19 -4 -66 -15 -105 -23 -76 -17 -163 -45 -181 -59 -6
-4 -32 -19 -58 -33 -71 -38 -155 -110 -203 -174 -24 -31 -43 -60 -43 -65 0 -5
-6 -17 -13 -25 -46 -54 -77 -226 -77 -424 1 -297 57 -455 213 -596 50 -45 167
-121 187 -121 9 0 25 -7 36 -15 12 -8 39 -18 60 -24 22 -5 66 -16 99 -25 84
-23 406 -23 490 0 33 9 78 20 100 26 21 5 44 13 50 17 5 4 24 13 42 19 50 17
166 96 222 153 98 98 170 254 171 366 0 31 5 45 19 53 13 6 149 10 374 10 284
0 357 -3 366 -13 7 -9 12 -122 13 -348 l3 -334 160 0 160 0 3 809 c1 598 -1
812 -9 823 -9 11 -44 13 -163 11 l-151 -3 -5 -320 -5 -320 -380 0 -380 0 -7
56 c-11 85 -44 174 -93 248 -57 84 -59 87 -125 142 -112 94 -202 134 -385 174
-114 25 -305 33 -385 15z m375 -314 c147 -66 197 -109 256 -221 18 -34 23 -64
28 -190 8 -192 0 -288 -29 -346 -66 -129 -168 -199 -344 -233 -101 -21 -140
-20 -256 3 -172 34 -271 100 -338 225 l-27 51 0 220 c0 208 1 223 22 267 24
48 127 168 146 168 6 0 18 6 26 14 17 16 85 43 141 56 19 5 103 8 185 6 119
-2 158 -6 190 -20z"/>
<path d="M9542 3298 c-9 -9 -12 -370 -12 -1565 0 -1524 0 -1552 19 -1563 26
-13 266 -13 292 0 19 11 19 39 19 1563 0 1195 -3 1556 -12 1565 -8 8 -57 12
-153 12 -96 0 -145 -4 -153 -12z"/>
<path d="M7990 3271 c-47 -3 -90 -10 -97 -14 -6 -4 -35 -12 -65 -17 -136 -25
-348 -141 -427 -234 -14 -15 -29 -33 -35 -40 -31 -33 -68 -101 -110 -199 -60
-142 -62 -787 -2 -902 9 -17 16 -35 16 -42 0 -7 11 -33 25 -59 65 -123 170
-223 296 -285 129 -64 161 -77 205 -84 22 -4 59 -14 84 -22 34 -12 92 -16 245
-16 184 0 208 2 295 26 140 38 167 49 304 124 44 24 152 132 194 192 23 34 42
64 42 68 0 3 8 24 19 47 54 119 56 138 56 496 0 300 -2 341 -19 395 -66 213
-177 351 -359 449 -76 41 -131 63 -207 81 -30 8 -71 18 -90 24 -47 13 -265 20
-370 12z m292 -301 c61 -9 118 -28 158 -51 8 -5 29 -16 47 -24 41 -19 144
-123 165 -167 54 -112 53 -102 53 -423 l0 -300 -34 -70 c-41 -82 -134 -178
-207 -214 -27 -13 -61 -29 -76 -37 -15 -7 -78 -20 -140 -30 -105 -15 -121 -16
-223 0 -151 22 -256 68 -338 149 -56 55 -116 163 -117 210 0 15 -4 27 -10 27
-6 0 -10 97 -10 270 0 173 4 270 10 270 6 0 10 14 10 31 0 16 12 56 27 87 60
128 234 252 383 272 82 11 226 11 302 0z"/>
<path d="M500 3021 c0 -117 2 -140 16 -145 9 -3 327 -6 708 -6 573 0 695 -2
711 -14 17 -12 19 -25 17 -107 -2 -52 -5 -107 -7 -124 -3 -16 -9 -94 -15 -173
-9 -131 -16 -187 -50 -352 -33 -165 -81 -332 -116 -403 -8 -16 -14 -34 -14
-40 0 -19 -122 -258 -157 -309 -18 -26 -33 -51 -33 -54 0 -12 -146 -188 -207
-250 -49 -49 -124 -114 -188 -162 -11 -8 -137 -89 -170 -110 -11 -7 -31 -17
-45 -22 -14 -6 -32 -15 -40 -20 -8 -6 -26 -15 -40 -20 -14 -6 -37 -17 -52 -25
-14 -8 -32 -15 -38 -15 -7 0 -31 -8 -54 -19 -66 -29 -169 -61 -198 -61 l-28 0
0 -155 0 -155 35 0 c19 0 63 9 97 19 35 11 79 24 98 29 171 49 435 173 569
267 107 75 244 191 318 269 80 84 204 242 237 301 9 17 25 44 36 60 34 52 92
164 125 240 62 143 83 200 114 305 12 41 27 91 33 110 11 34 25 102 48 225 6
33 17 94 25 135 8 41 20 136 26 210 15 189 26 682 16 698 -8 9 -198 12 -893
12 l-884 0 0 -139z"/>
<path d="M3977 1503 c-4 -3 -7 -302 -7 -663 0 -514 3 -660 13 -668 13 -11 469
0 692 17 72 5 243 13 380 16 138 4 342 13 455 20 113 8 323 17 467 21 l262 7
5 -24 c3 -13 7 -33 8 -44 3 -19 12 -20 154 -23 119 -2 154 0 163 11 8 11 10
188 9 673 l-3 659 -162 3 -163 2 0 -163 c0 -113 -4 -167 -12 -175 -17 -17
-1909 -17 -1926 0 -8 8 -12 62 -12 175 l0 163 -158 0 c-87 0 -162 -3 -165 -7z
m2261 -645 c13 -13 17 -275 4 -294 -8 -12 -277 -29 -697 -44 -154 -6 -352 -15
-440 -20 -88 -6 -301 -15 -474 -21 -264 -10 -315 -9 -322 2 -14 22 -11 363 3
377 17 17 1909 17 1926 0z"/>
<path d="M10543 1503 c-18 -7 -18 -312 0 -318 6 -3 497 -6 1090 -8 945 -2
1079 -4 1087 -17 13 -20 13 -127 0 -151 -10 -19 -33 -19 -1088 -19 -825 0
-1081 -3 -1090 -12 -18 -18 -17 -797 1 -821 11 -16 101 -17 1346 -17 1316 0
1334 0 1348 19 10 16 13 55 11 168 l-3 148 -1109 3 c-799 1 -1113 5 -1123 13
-17 15 -18 160 -1 177 9 9 263 12 1081 12 717 0 1075 3 1088 10 18 10 19 25
19 405 0 380 -1 395 -19 405 -20 10 -2613 14 -2638 3z"/>
<path d="M14039 1176 c-142 -42 -251 -135 -320 -272 -38 -76 -41 -88 -46 -190
-6 -131 5 -200 49 -291 59 -121 197 -239 304 -259 19 -3 38 -13 41 -20 7 -18
189 -20 195 -3 2 6 27 17 56 24 47 13 126 58 177 103 55 47 128 158 140 210 3
17 13 36 21 43 21 17 21 284 -1 293 -8 3 -15 13 -15 23 0 20 -33 90 -65 138
-29 44 -133 143 -158 151 -12 3 -29 12 -37 19 -22 18 -172 55 -222 54 -24 0
-77 -11 -119 -23z m268 -108 c43 -17 77 -42 133 -98 98 -98 120 -155 120 -310
-1 -83 -5 -113 -20 -145 -11 -22 -19 -43 -20 -47 0 -4 -14 -27 -30 -52 -40
-59 -101 -111 -170 -144 -49 -24 -66 -27 -155 -26 -87 0 -108 4 -158 27 -71
33 -154 116 -190 189 -27 55 -57 167 -57 209 1 38 36 162 60 210 33 64 118
143 191 178 56 26 75 30 151 31 68 0 101 -5 145 -22z"/>
<path d="M14006 934 c-14 -13 -16 -52 -16 -268 0 -232 1 -254 18 -269 22 -20
53 -22 70 -5 8 8 12 46 12 105 0 82 2 93 20 103 33 18 58 -5 97 -88 56 -118
67 -132 114 -132 27 0 42 5 46 15 3 9 -17 60 -46 117 l-52 102 30 23 c91 71
97 185 14 271 -29 31 -77 41 -195 42 -75 0 -100 -4 -112 -16z m236 -101 c34
-32 36 -70 7 -107 -20 -25 -26 -27 -88 -24 l-66 3 -3 69 c-3 80 1 86 72 86 41
0 55 -5 78 -27z"/>
<path d="M9211 760 c-30 -5 -127 -11 -215 -15 -89 -3 -224 -12 -301 -20 -77
-8 -210 -17 -295 -20 -85 -3 -191 -11 -235 -16 -44 -5 -165 -14 -270 -19 -104
-5 -278 -16 -385 -25 -107 -8 -253 -19 -325 -23 -158 -9 -155 -5 -155 -164 0
-141 0 -141 134 -133 55 4 131 10 167 15 36 6 167 14 290 20 123 5 258 14 299
20 41 5 170 14 285 20 116 5 246 14 290 19 44 6 180 15 302 21 122 5 227 12
235 15 7 3 82 9 167 14 113 6 155 12 162 22 10 16 12 201 3 248 -6 30 -9 31
-53 30 -25 -1 -70 -5 -100 -9z"/>
</g>
</svg>
