<svg width="64" height="64" viewBox="0 0 64 64" fill="none" xmlns="http://www.w3.org/2000/svg">
  <!-- 배경 원 -->
  <circle cx="32" cy="32" r="32" fill="#1E3A8A"/>
  
  <!-- 로봇 헤드 -->
  <rect x="16" y="18" width="32" height="28" rx="8" fill="white"/>
  
  <!-- 안테나 -->
  <line x1="32" y1="10" x2="32" y2="18" stroke="white" stroke-width="2" stroke-linecap="round"/>
  <circle cx="32" cy="8" r="2" fill="#06B6D4"/>
  
  <!-- 눈 -->
  <circle cx="24" cy="28" r="3" fill="#06B6D4"/>
  <circle cx="40" cy="28" r="3" fill="#06B6D4"/>
  
  <!-- 입 -->
  <rect x="26" y="36" width="12" height="4" rx="2" fill="#1E3A8A"/>
  
  <!-- 귀 -->
  <circle cx="14" cy="26" r="4" fill="white" stroke="#1E3A8A" stroke-width="2"/>
  <circle cx="50" cy="26" r="4" fill="white" stroke="#1E3A8A" stroke-width="2"/>
  
  <!-- 별 장식 (상담사를 의미) -->
  <g transform="translate(28, 48)">
    <path d="M4 0 L1.236 2.854 L-1.618 0.927 L-0.618 4.045 L-4 2 L-0.618 5.955 L-1.618 9.073 L1.236 7.146 L4 10 L6.764 7.146 L9.618 9.073 L8.618 5.955 L12 8 L8.618 4.045 L9.618 0.927 L6.764 2.854 Z" fill="#FBBF24"/>
  </g>
</svg> 